<?xml version="1.0" encoding="utf-8"?>
<!-- Generator: Adobe Illustrator 16.0.0, SVG Export Plug-In . SVG Version: 6.00 Build 0)  -->
<!DOCTYPE svg PUBLIC "-//W3C//DTD SVG 1.1//EN" "http://www.w3.org/Graphics/SVG/1.1/DTD/svg11.dtd">
<svg version="1.1" id="Layer_1" xmlns="http://www.w3.org/2000/svg" xmlns:xlink="http://www.w3.org/1999/xlink" x="0px" y="0px"
	 width="24px" height="24px" viewBox="0 0 24 24" enable-background="new 0 0 24 24" xml:space="preserve">
<rect x="1.5" y="2.5" fill="#FFFFFF" stroke="#AAAAAA" stroke-miterlimit="10" width="22" height="15"/>
<linearGradient id="SVGID_1_" gradientUnits="userSpaceOnUse" x1="12.5835" y1="17.1328" x2="12.5835" y2="6.501">
	<stop  offset="0.2029" style="stop-color:#FFFFFF"/>
	<stop  offset="0.8027" style="stop-color:#CCCCCC"/>
</linearGradient>
<linearGradient id="SVGID_2_" gradientUnits="userSpaceOnUse" x1="12.5806" y1="17.3057" x2="12.5806" y2="6.001">
	<stop  offset="0" style="stop-color:#FFFFFF"/>
	<stop  offset="0.5176" style="stop-color:#AAAAAA"/>
</linearGradient>
<path fill="url(#SVGID_1_)" stroke="url(#SVGID_2_)" stroke-miterlimit="10" d="M23.5,16.65c0,0-4.17-10.15-11.04-10.15
	C5.58,6.5,1.67,17.13,1.67,17.13"/>
<linearGradient id="SVGID_3_" gradientUnits="userSpaceOnUse" x1="12.5898" y1="2.2397" x2="12.5898" y2="9.416">
	<stop  offset="0" style="stop-color:#FFFFFF"/>
	<stop  offset="0.4528" style="stop-color:#AAAAAA"/>
</linearGradient>
<path fill="#FFFFFF" stroke="url(#SVGID_3_)" stroke-miterlimit="10" d="M1.67,2.79c0,0,4.17,6.12,11.04,6.12S23.5,2.5,23.5,2.5"/>
<rect x="1.5" y="2.5" fill="none" stroke="#AAAAAA" stroke-miterlimit="10" width="22" height="15"/>
<linearGradient id="SVGID_4_" gradientUnits="userSpaceOnUse" x1="6.6353" y1="10.6641" x2="6.6353" y2="23.395">
	<stop  offset="0" style="stop-color:#80729D"/>
	<stop  offset="0.45" style="stop-color:#7C6C9B"/>
	<stop  offset="0.55" style="stop-color:#7549B1"/>
	<stop  offset="1" style="stop-color:#461D7C"/>
</linearGradient>
<polygon fill="url(#SVGID_4_)" points="8,10.66 0.27,17.04 8,23.39 8,19 13,19 13,15 8,15 "/>
</svg>
